<?xml version="1.0" standalone="no"?>
<svg id="logo" width="700" height="800" viewBox="0 0 700 800" xmlns="http://www.w3.org/2000/svg" version="1.1" xmlns:xlink="http://www.w3.org/1999/xlink" preserveAspectRatio="xMidYMid meet" style="color:#0a0;">

	<defs>
		<radialGradient id="glow_gradient">
			<stop offset="55%" stop-color="currentColor" stop-opacity="0"/>
			<stop offset="100%" stop-color="currentColor" stop-opacity="0.8"/>
		</radialGradient>
		<g id="inner">
			<circle fill="#fff" cx="350" cy="400" r="298"/>
			<circle fill="url(#glow_gradient)" cx="350" cy="400" r="298"/>
		</g>

		<radialGradient id="sphere_gradient">
			<stop offset="70%" stop-color="#fff"/>
			<stop offset="100%" stop-color="#bbb"/>
		</radialGradient>
		<g id="sphere">
			<path fill="url(#sphere_gradient)" fill-rule="evenodd" d="M 350,400 m -300, 0 a 300,300 0 1,0 600,0 a 300,300 0 1,0 -600,0 M 350,400 m -85, 0 a 85,85 0 1,0 170,0 a 85,85 0 1,0 -170,0" />
		</g>

		<radialGradient id="core_edge_gradient">
			<stop offset="0%" stop-color="currentColor" stop-opacity="0"/>
			<stop offset="49%" stop-color="currentColor" stop-opacity="0"/>
			<stop offset="50%" stop-color="currentColor" stop-opacity="1"/>
			<stop offset="98%" stop-color="currentColor" stop-opacity="1"/>
			<stop offset="100%" stop-color="currentColor" stop-opacity="0.4"/>
		</radialGradient>
		<radialGradient id="core_radial_gradient" cx="0.55" cy="0.45" r="0.75">
			<stop offset="0%" stop-color="currentColor" stop-opacity="0.1"/>
			<stop offset="30%" stop-color="currentColor" stop-opacity="1"/>
			<stop offset="40%" stop-color="currentColor" stop-opacity="1"/>
			<stop offset="50%" stop-color="currentColor" stop-opacity="0"/>
		</radialGradient>
		<linearGradient id="core_linear_gradient" x1="0.6" x2="0" y1="0" y2="1">
			<stop offset="0%" stop-color="#currentColor" stop-opacity="0" />
			<stop offset="100%" stop-color="#currentColor" stop-opacity="0.5" />
		</linearGradient>
		<g id="core">
			<use xlink:href="#inner" />
			<circle fill="#cc0" cx="350" cy="400" r="180" />
			<circle id="core_pulse" fill="url(#core_edge_gradient)" cx="350" cy="400" r="180" />
			<circle fill="url(#core_radial_gradient)" cx="350" cy="400" r="180" />
			<circle fill="url(#core_linear_gradient)" cx="350" cy="400" r="180" />
		</g>

		<linearGradient id="primary_gradient" x1="0.5" x2="0" y1="0" y2="1">
			<stop offset="0%" stop-color="#666"/>
			<stop offset="10%" stop-color="#777"/>
			<stop offset="100%" stop-color="#fff"/>
		</linearGradient>
		<g id="primary_hole">
			<path fill="url(#primary_gradient)" fill-rule="evenodd" d="M 350,400 m -100, 0 a 100,100 0 1,0 200,0 a 100,100 0 1,0 -200,0 M 350,400 m -85, 0 a 85,85 0 1,0 170,0 a 85,85 0 1,0 -170,0" />
		</g>

		<linearGradient id="secondary_gradient" x1="1" x2="0" y1="0" y2="1">
			<stop offset="0%" stop-color="#fff" stop-opacity="1" />
			<stop offset="100%" stop-color="#fff" stop-opacity="0.9" />
		</linearGradient>
		<mask id="secondary_mask">
			<path fill="#fff" d="M545,400 m -30,0 a 45,60 0 1 1 0 1 z" />
		</mask>
		<g id="secondary_hole" mask="url(#secondary_mask)">
			<use xlink:href="#core" />
			<path fill="url(#secondary_hole_gradient)" fill-rule="evenodd" d="M545,400 m -30,0 a 45,60 0 1 1 0 0.1 M525,400 m -30,0 a 45,60 0 1 1 0 0.1 z" />
		</g>
		<linearGradient id="secondary_hole_gradient" x1="0" x2="1" y1="0.5" y2="0.5">
			<stop offset="0%" stop-color="#333"/>
			<stop offset="100%" stop-color="#fff"/>
		</linearGradient>

		<linearGradient id="shine_gradient" x1="0.6" x2="0" y1="0" y2="1">
			<stop offset="0%" stop-color="#fff" stop-opacity="0.6" />
			<stop offset="100%" stop-color="#fff" stop-opacity="0" />
		</linearGradient>

		<radialGradient id="shadow_gradient">
			<stop offset="25%" stop-color="#000" stop-opacity="0.5"/>
			<stop offset="100%" stop-color="#000" stop-opacity="0"/>
		</radialGradient>
	</defs>

	<g id="jaby_mascot">
		<use xlink:href="#core" />
		<use xlink:href="#sphere" />
		<use xlink:href="#primary_hole" />
		<g id="rotated_sphere">
			<use xlink:href="#secondary_hole" transform="rotate(15, 350, 400)" />
			<use xlink:href="#secondary_hole" transform="rotate(75, 350, 400)" />
			<use xlink:href="#secondary_hole" transform="rotate(135, 350, 400)" />
			<use xlink:href="#secondary_hole" transform="rotate(195, 350, 400)" />
			<use xlink:href="#secondary_hole" transform="rotate(255, 350, 400)" />
			<use xlink:href="#secondary_hole" transform="rotate(315, 350, 400)" />
		</g>
		<circle fill="url(#shine_gradient)" cx="350" cy="400" r="300"/>
	</g>
	<ellipse fill="url(#shadow_gradient)" cx="335" cy="730" rx="225" ry="20" />

</svg>