<?xml version="1.0" standalone="no"?>
<svg width="700" height="800" viewBox="0 0 700 800" xmlns="http://www.w3.org/2000/svg" version="1.1" xmlns:xlink="http://www.w3.org/1999/xlink">

	<style>
		.sphere {
			color: #fff;
		}
		.core {
			color: #0a0;
		}
	</style>

	<defs>
		<radialGradient id="glow_gradient" class="core">
			<stop offset="55%" stop-color="currentColor" stop-opacity="0"/>
			<stop offset="100%" stop-color="currentColor" stop-opacity="0.5"/>
		</radialGradient>
		<svg id="inner">
			<circle fill="#fff" cx="350" cy="350" r="300"/>
			<circle fill="url(#glow_gradient)" cx="350" cy="350" r="300"/>
		</svg>

		<radialGradient id="sphere_gradient">
			<stop offset="70%" stop-color="#fff"/>
			<stop offset="100%" stop-color="#bbb"/>
		</radialGradient>
		<svg id="sphere">
			<path fill="url(#sphere_gradient)" fill-rule="evenodd" d="M 350,350 m -300, 0 a 300,300 0 1,0 600,0 a 300,300 0 1,0 -600,0 M 350,350 m -85, 0 a 85,85 0 1,0 170,0 a 85,85 0 1,0 -170,0" />
		</svg>

		<radialGradient id="core_radial_gradient" class="core">
			<stop offset="0%" stop-color="currentColor" stop-opacity="0.1"/>
			<stop offset="30%" stop-color="currentColor" stop-opacity="1"/>
		</radialGradient>
		<linearGradient id="core_linear_gradient" x1="0.6" x2="0" y1="0" y2="1" class="core">
			<stop offset="0%" stop-color="#currentColor" stop-opacity="0" />
			<stop offset="100%" stop-color="#currentColor" stop-opacity="0.5" />
		</linearGradient>
		<svg id="core">
			<circle fill="#cc0" cx="350" cy="350" r="185" />
			<circle fill="url(#core_radial_gradient)" cx="350" cy="350" r="185" />
			<circle fill="url(#core_linear_gradient)" cx="350" cy="350" r="185" />
		</svg>

		<linearGradient id="primary_gradient" x1="0.5" x2="0" y1="0" y2="1">
			<stop offset="0%" stop-color="#666"/>
			<stop offset="10%" stop-color="#777"/>
			<stop offset="100%" stop-color="#fff"/>
		</linearGradient>
		<svg id="primary_hole">
			<path fill="url(#primary_gradient)" fill-rule="evenodd" d="M 350,350 m -100, 0 a 100,100 0 1,0 200,0 a 100,100 0 1,0 -200,0 M 350,350 m -85, 0 a 85,85 0 1,0 170,0 a 85,85 0 1,0 -170,0" />
		</svg>

		<linearGradient id="secondary_gradient" x1="1" x2="0" y1="0" y2="1">
			<stop offset="0%" stop-color="#fff" stop-opacity="1" />
			<stop offset="100%" stop-color="#fff" stop-opacity="0.9" />
		</linearGradient>
		<mask id="secondary_mask">
			<path fill="#fff" d="M545,350 m -30,0 a 45,60 0 1 1 0 1 z" />
		</mask>
		<svg id="secondary_hole" mask="url(#secondary_mask)">
			<use xlink:href="#inner" />
			<use xlink:href="#core" />
			<path fill="url(#secondary_hole_gradient)" fill-rule="evenodd" d="M545,350 m -30,0 a 45,60 0 1 1 0 0.1 M525,350 m -30,0 a 45,60 0 1 1 0 0.1 z" />
		</svg>
		<linearGradient id="secondary_hole_gradient" x1="0" x2="1" y1="0.5" y2="0.5">
			<stop offset="0%" stop-color="#333"/>
			<stop offset="100%" stop-color="#fff"/>
		</linearGradient>

		<linearGradient id="shine_gradient" x1="0.6" x2="0" y1="0" y2="1">
			<stop offset="0%" stop-color="#fff" stop-opacity="0.6" />
			<stop offset="100%" stop-color="#fff" stop-opacity="0" />
		</linearGradient>

		<radialGradient id="shadow_gradient">
			<stop offset="25%" stop-color="#000" stop-opacity="0.5"/>
			<stop offset="100%" stop-color="#000" stop-opacity="0"/>
		</radialGradient>
	</defs>

	<svg id="jaby_mascot">

		<use xlink:href="#core" />
 		<use xlink:href="#sphere" />
		<use xlink:href="#primary_hole" />

 		<svg id="secondary_holes">
			<use xlink:href="#secondary_hole" transform="rotate(15, 350, 350)" />
			<use xlink:href="#secondary_hole" transform="rotate(75, 350, 350)" />
			<use xlink:href="#secondary_hole" transform="rotate(135, 350, 350)" />
			<use xlink:href="#secondary_hole" transform="rotate(195, 350, 350)" />
			<use xlink:href="#secondary_hole" transform="rotate(255, 350, 350)" />
			<use xlink:href="#secondary_hole" transform="rotate(315, 350, 350)" />
		</svg>

		<circle fill="url(#shine_gradient)" cx="350" cy="350" r="300"/>
	</svg>

	<ellipse fill="url(#shadow_gradient)" cx="325" cy="675" rx="200" ry="15" />
</svg>